<svg xmlns="http://www.w3.org/2000/svg" viewBox="0 0 420 72" role="img" aria-labelledby="title desc">
  <title id="title">Dra. Jessica Menezes - Nutricao</title>
  <desc id="desc">Logotipo em verde-oliva e terracota, com monograma JM e folhas.</desc>

  <g transform="translate(6 6)">
    <!-- Monograma organico: acompanha a paleta de verde-oliva e terracota do site. -->
    <circle cx="30" cy="30" r="28" fill="#ECE5D0"/>
    <path d="M17 20v18c0 8 4 12 11 12 7 0 11-4 11-12V20"
          fill="none" stroke="#5C5835" stroke-width="4.2" stroke-linecap="round"/>
    <path d="M30 44V22l11 15V22" fill="none" stroke="#5C5835" stroke-width="4.2"
          stroke-linecap="round" stroke-linejoin="round"/>
    <path d="M43 12c8 1 13 6 14 14-8 0-14-5-14-14Z" fill="#E8A06B"/>
    <path d="M43 12c4 4 7 8 9 13" fill="none" stroke="#FCFAF5" stroke-width="1.4"
          stroke-linecap="round"/>
  </g>

  <g transform="translate(78 0)">
    <text x="0" y="30" font-family="Outfit, Plus Jakarta Sans, Inter, Arial, sans-serif"
          font-size="20" font-weight="700" letter-spacing="1.2" fill="#5C5835">DRA. JESSICA</text>
    <text x="0" y="53" font-family="Outfit, Plus Jakarta Sans, Inter, Arial, sans-serif"
          font-size="20" font-weight="700" letter-spacing="1.2" fill="#E8A06B">MENEZES</text>
    <path d="M0 61h230" stroke="#E8DFCC" stroke-width="1.5"/>
    <text x="244" y="64" font-family="Inter, Arial, sans-serif" font-size="9.5" font-weight="600"
          letter-spacing="2.1" fill="#6B6558">NUTRI&#199;&#195;O</text>
  </g>
</svg>
