<svg xmlns="http://www.w3.org/2000/svg" viewBox="0 0 340 60" width="100%" height="100%">
  <defs>
    <linearGradient id="brand-grad" x1="0%" y1="0%" x2="100%" y2="100%">
      <stop offset="0%" stop-color="#0F6A6A" />
      <stop offset="100%" stop-color="#E94F8A" />
    </linearGradient>
  </defs>
  
  <!-- Icon: Leaf + Letter RM abstract -->
  <g transform="translate(10, 5)">
    <!-- Main leaf shape in Teal -->
    <path d="M 25,5 C 38,5 45,18 45,30 C 45,42 35,45 25,45 C 15,45 5,42 5,30 C 5,18 12,5 25,5 Z" 
          fill="none" stroke="#0F6A6A" stroke-width="3" stroke-linecap="round"/>
    
    <!-- Accent swoosh in Pink (Heart/Stem concept) -->
    <path d="M 25,8 C 28,15 38,25 35,35 C 32,45 18,43 15,35 C 12,27 22,15 25,8 Z" 
          fill="#E94F8A" opacity="0.85"/>
          
    <!-- Inner details -->
    <path d="M 25,5 L 25,45" fill="none" stroke="#FFFFFF" stroke-width="1.5" stroke-dasharray="3,3" opacity="0.7"/>
  </g>

  <!-- Typography -->
  <text x="70" y="32" font-family="'Plus Jakarta Sans', 'Outfit', 'Inter', sans-serif" font-size="18" font-weight="800" fill="#0F6A6A" letter-spacing="0.5">
    JESSICA <tspan fill="#E94F8A">MENEZES</tspan>
  </text>
  
  <text x="70" y="46" font-family="'Inter', sans-serif" font-size="10" font-weight="500" fill="#6A7B7B" letter-spacing="3">
    NUTRIÇÃO PREMIUM
  </text>
</svg>
